<?xml version="1.0" standalone="no"?>
<!DOCTYPE svg PUBLIC "-//W3C//DTD SVG 20010904//EN"
 "http://www.w3.org/TR/2001/REC-SVG-20010904/DTD/svg10.dtd">
<svg version="1.0" xmlns="http://www.w3.org/2000/svg"
 width="20.000000pt" height="20.000000pt" viewBox="0 0 20.000000 20.000000"
 preserveAspectRatio="xMidYMid meet">
<metadata>
Created by potrace 1.16, written by Peter Selinger 2001-2019
</metadata>
<g transform="translate(0.000000,20.000000) scale(0.100000,-0.100000)"
fill="#000000" stroke="none">
<path d="M63 165 c-3 -9 -3 -33 0 -54 4 -34 2 -40 -19 -50 -13 -6 -24 -17 -24
-26 0 -12 15 -15 80 -15 65 0 80 3 80 15 0 9 -11 20 -25 27 -22 10 -24 15 -18
55 4 33 2 47 -8 54 -22 14 -59 10 -66 -6z"/>
</g>
</svg>
